<svg xmlns="http://www.w3.org/2000/svg" viewBox="0 0 48 16">
  <path fill="currentColor" d="M18.9 0l-3.5 15.3h-2.8L16.1 0h2.8zm14.4 9.9l1.5-4 .8 4h-2.3zm3.1 5.4h2.6l-2.3-15.3h-2.4c-.5 0-1 .3-1.2.8l-4.2 14.5h2.9l.6-1.6h3.6l.4 1.6zm-7.1-5c0-4-5.5-4.2-5.5-6 0-.5.5-1.1 1.7-1.2.6 0 2.2-.1 4 .9l.7-3.3c-1-.4-2.2-.7-3.8-.7-4 0-6.8 2.1-6.8 5.2 0 2.3 2 3.5 3.6 4.2 1.6.8 2.1 1.3 2.1 2 0 1.1-1.3 1.6-2.4 1.6-2 0-3.2-.5-4.1-1l-.7 3.4c.9.4 2.7.8 4.5.8 4.2 0 7-2.1 7-5.4l-.3-.5zM10.3 0L5.5 15.3H2.6L.2 2.4C.1 2-.1 1.6-.2 1.2-.5.7-1.4.2-2.2 0L-2.1 0h4.7c.6 0 1.1.4 1.3 1l1.2 6.1L7.7 0h2.6z"/>
</svg>
